<svg width="143" height="114" viewBox="0 0 143 114" fill="none" xmlns="http://www.w3.org/2000/svg">
<g clip-path="url(#clip0_62_96)">
<path d="M14.5 27V83C14.5 85.6667 15.6667 87.5 18 88.5L71.5 112L125 88.5C127.333 87.5 128.5 85.6667 128.5 83V27L71.5 2L14.5 27Z" fill="url(#paint0_linear_62_96)" stroke="#471B78" stroke-width="4" stroke-miterlimit="10" stroke-linecap="round" stroke-linejoin="round"/>
<path d="M71.5001 49.7921L123.5 27L71.5004 4.20001L71.5001 49.7921Z" fill="black" fill-opacity="0.05"/>
<path d="M71.5 50L95.5 41.2632L71.5 32L48 41.0702L71.5 50Z" fill="#7840AE"/>
<path d="M94 72V102L110 95V65L94 72Z" fill="#F1E8F1" stroke="#471B78" stroke-width="4" stroke-miterlimit="10" stroke-linecap="round"/>
<path d="M73.6982 56.7857C72.7901 57.1944 72.3361 57.3987 72.0506 57.7223C71.7533 58.0592 71.5782 58.4865 71.5534 58.9353C71.5297 59.3661 71.7096 59.8303 72.0696 60.7587L80.872 83.4618C81.2647 84.4747 81.4611 84.9812 81.7979 85.2942C82.1484 85.6201 82.6041 85.8094 83.0823 85.8279C83.5418 85.8457 84.0393 85.6275 85.0342 85.1911L126.767 66.8873C127.413 66.6038 127.737 66.462 127.979 66.2422C128.231 66.0126 128.421 65.7223 128.53 65.3987C128.634 65.0887 128.634 64.7358 128.634 64.03V62.9742C128.634 62.2894 128.634 61.9469 128.733 61.6441C128.836 61.3279 129.017 61.0425 129.258 60.8137C129.49 60.5945 129.799 60.4479 130.418 60.1547L134.338 58.2975C135.257 57.8618 135.717 57.644 135.998 57.3077C136.291 56.9575 136.456 56.5175 136.464 56.061C136.472 55.6226 136.268 55.1567 135.859 54.2248L127.815 35.8847C127.392 34.9197 127.18 34.4372 126.841 34.1423C126.487 33.8353 126.037 33.6621 125.569 33.6529C125.119 33.6441 124.638 33.8603 123.678 34.2927L73.6982 56.7857Z" fill="#471B78" fill-opacity="0.49"/>
<path d="M71.5 52L84 80.5L141 55.5L128.5 27L71.5 52Z" fill="url(#paint1_linear_62_96)" stroke="#471B78" stroke-width="4" stroke-miterlimit="10" stroke-linecap="round" stroke-linejoin="round"/>
<path d="M69.3073 56.7871C70.2136 57.1953 70.6668 57.3995 70.952 57.7226C71.249 58.0591 71.4242 58.4857 71.4493 58.9339C71.4735 59.3641 71.2945 59.8278 70.9366 60.7552L62.1751 83.4553C61.7834 84.4702 61.5876 84.9777 61.2508 85.2915C60.9003 85.618 60.4443 85.8079 59.9656 85.8266C59.5057 85.8446 59.0075 85.6261 58.0112 85.1891L16.587 67.0206C15.9406 66.7371 15.6174 66.5954 15.3754 66.3755C15.1227 66.146 14.933 65.8556 14.8243 65.532C14.7202 65.2221 14.7202 64.8692 14.7202 64.1634V62.6692C14.7202 61.9724 14.7202 61.624 14.6183 61.3171C14.5119 60.9967 14.3261 60.7084 14.0782 60.4791C13.8408 60.2596 13.5235 60.1157 12.889 59.8278L8.89274 58.0152C7.952 57.5885 7.48164 57.3752 7.19308 57.0385C6.89265 56.6881 6.72271 56.2444 6.7121 55.7829C6.7019 55.3397 6.90936 54.8667 7.32427 53.9207L15.2343 35.8857C15.6577 34.9204 15.8694 34.4377 16.2092 34.1428C16.5629 33.8357 17.0132 33.6626 17.4815 33.6535C17.9314 33.6448 18.4119 33.8612 19.373 34.2941L69.3073 56.7871Z" fill="#471B78" fill-opacity="0.49"/>
<path d="M71.5 52L59 80.5L2 55.5L14.5 27L71.5 52Z" fill="url(#paint2_linear_62_96)" stroke="#471B78" stroke-width="4" stroke-miterlimit="10" stroke-linecap="round" stroke-linejoin="round"/>
<path d="M71.5 52V112" stroke="#471B78" stroke-width="4" stroke-miterlimit="10" stroke-linecap="round" stroke-linejoin="round"/>
</g>
<defs>
<linearGradient id="paint0_linear_62_96" x1="71.5" y1="44" x2="71.5" y2="112" gradientUnits="userSpaceOnUse">
<stop stop-color="#C279F0"/>
<stop offset="1" stop-color="#7840AE"/>
</linearGradient>
<linearGradient id="paint1_linear_62_96" x1="106" y1="27" x2="106" y2="80" gradientUnits="userSpaceOnUse">
<stop stop-color="#C279F0"/>
<stop offset="1" stop-color="#9A66E2"/>
</linearGradient>
<linearGradient id="paint2_linear_62_96" x1="37" y1="27" x2="37" y2="80" gradientUnits="userSpaceOnUse">
<stop stop-color="#C279F0"/>
<stop offset="1" stop-color="#9A66E2"/>
</linearGradient>
<clipPath id="clip0_62_96">
<rect width="143" height="114" fill="white"/>
</clipPath>
</defs>
</svg>
