<svg width="256" height="256" viewBox="0 0 256 256" fill="none" xmlns="http://www.w3.org/2000/svg">
<path d="M71.3637 222.419H59.2304L57.3861 228H47.3883L59.8613 193.784H70.8299L83.2544 228H73.208L71.3637 222.419ZM68.9856 215.139L65.2971 204.073L61.6571 215.139H68.9856ZM95.8674 193.784V228H86.3548V193.784H95.8674ZM106.089 216.983C104.666 216.983 103.452 216.481 102.449 215.478C101.446 214.475 100.945 213.262 100.945 211.838C100.945 210.382 101.446 209.153 102.449 208.15C103.452 207.114 104.666 206.597 106.089 206.597C107.545 206.597 108.775 207.114 109.778 208.15C110.781 209.153 111.282 210.382 111.282 211.838C111.282 213.262 110.781 214.475 109.778 215.478C108.775 216.481 107.545 216.983 106.089 216.983ZM143.389 205.189C143.389 207.26 142.904 209.153 141.933 210.868C140.995 212.55 139.555 213.909 137.614 214.945C135.705 215.948 133.359 216.449 130.577 216.449H125.869V228H116.356V193.784H130.577C133.327 193.784 135.656 194.269 137.565 195.24C139.507 196.211 140.963 197.553 141.933 199.268C142.904 200.983 143.389 202.957 143.389 205.189ZM129.655 208.878C132.34 208.878 133.683 207.648 133.683 205.189C133.683 202.698 132.34 201.452 129.655 201.452H125.869V208.878H129.655ZM164.246 228L156.724 216.837V228H147.211V192.085H156.724V211.45L164.246 200.773H175.652L164.926 214.459L175.846 228H164.246ZM188.681 200.433C190.525 200.433 192.127 200.805 193.486 201.549C194.877 202.294 195.945 203.297 196.689 204.558V200.773H206.201V227.709C206.201 230.265 205.716 232.562 204.745 234.601C203.775 236.671 202.254 238.321 200.183 239.551C198.145 240.78 195.556 241.395 192.418 241.395C188.212 241.395 184.847 240.408 182.323 238.435C179.799 236.461 178.36 233.775 178.004 230.378H187.371C187.565 231.252 188.05 231.931 188.827 232.417C189.603 232.902 190.606 233.145 191.836 233.145C195.071 233.145 196.689 231.333 196.689 227.709V224.214C195.945 225.476 194.877 226.479 193.486 227.223C192.127 227.968 190.525 228.34 188.681 228.34C186.513 228.34 184.539 227.774 182.76 226.641C181.013 225.509 179.621 223.891 178.586 221.788C177.583 219.652 177.081 217.177 177.081 214.362C177.081 211.547 177.583 209.088 178.586 206.985C179.621 204.882 181.013 203.264 182.76 202.132C184.539 200.999 186.513 200.433 188.681 200.433ZM196.689 214.362C196.689 212.615 196.204 211.24 195.233 210.237C194.295 209.234 193.13 208.732 191.739 208.732C190.315 208.732 189.134 209.234 188.196 210.237C187.257 211.207 186.788 212.583 186.788 214.362C186.788 216.109 187.257 217.501 188.196 218.536C189.134 219.539 190.315 220.041 191.739 220.041C193.13 220.041 194.295 219.539 195.233 218.536C196.204 217.533 196.689 216.142 196.689 214.362Z" fill="#471B78"/>
<g clip-path="url(#clip0_32_7)">
<path d="M70.5 93V149C70.5 151.667 71.6667 153.5 74 154.5L127.5 178L181 154.5C183.333 153.5 184.5 151.667 184.5 149V93L127.5 68L70.5 93Z" fill="url(#paint0_linear_32_7)" stroke="#471B78" stroke-width="4" stroke-miterlimit="10" stroke-linecap="round" stroke-linejoin="round"/>
<path d="M127.5 115.792L179.5 93L127.5 70.2L127.5 115.792Z" fill="black" fill-opacity="0.05"/>
<path d="M127.5 116L151.5 107.263L127.5 98L104 107.07L127.5 116Z" fill="#7840AE"/>
<path d="M150 138V168L166 161V131L150 138Z" fill="#F1E8F1" stroke="#471B78" stroke-width="4" stroke-miterlimit="10" stroke-linecap="round"/>
<path d="M129.698 122.786C128.79 123.194 128.336 123.399 128.051 123.722C127.753 124.059 127.578 124.487 127.553 124.935C127.53 125.366 127.71 125.83 128.07 126.759L136.872 149.462C137.265 150.475 137.461 150.981 137.798 151.294C138.148 151.62 138.604 151.809 139.082 151.828C139.542 151.846 140.039 151.628 141.034 151.191L182.767 132.887C183.413 132.604 183.737 132.462 183.979 132.242C184.231 132.013 184.421 131.722 184.53 131.399C184.634 131.089 184.634 130.736 184.634 130.03V128.974C184.634 128.289 184.634 127.947 184.733 127.644C184.836 127.328 185.017 127.042 185.258 126.814C185.49 126.595 185.799 126.448 186.418 126.155L190.338 124.298C191.257 123.862 191.717 123.644 191.998 123.308C192.291 122.957 192.456 122.518 192.464 122.061C192.472 121.623 192.268 121.157 191.859 120.225L183.815 101.885C183.392 100.92 183.18 100.437 182.841 100.142C182.487 99.8353 182.037 99.6621 181.569 99.6529C181.119 99.6441 180.638 99.8603 179.678 100.293L129.698 122.786Z" fill="#471B78" fill-opacity="0.49"/>
<path d="M127.5 118L140 146.5L197 121.5L184.5 93L127.5 118Z" fill="url(#paint1_linear_32_7)" stroke="#471B78" stroke-width="4" stroke-miterlimit="10" stroke-linecap="round" stroke-linejoin="round"/>
<path d="M125.307 122.787C126.214 123.195 126.667 123.399 126.952 123.723C127.249 124.059 127.424 124.486 127.449 124.934C127.473 125.364 127.295 125.828 126.937 126.755L118.175 149.455C117.783 150.47 117.588 150.978 117.251 151.291C116.9 151.618 116.444 151.808 115.966 151.827C115.506 151.845 115.008 151.626 114.011 151.189L72.587 133.021C71.9406 132.737 71.6174 132.595 71.3754 132.376C71.1227 132.146 70.933 131.856 70.8243 131.532C70.7202 131.222 70.7202 130.869 70.7202 130.163V128.669C70.7202 127.972 70.7202 127.624 70.6183 127.317C70.5119 126.997 70.3261 126.708 70.0782 126.479C69.8408 126.26 69.5235 126.116 68.889 125.828L64.8927 124.015C63.952 123.589 63.4816 123.375 63.1931 123.039C62.8926 122.688 62.7227 122.244 62.7121 121.783C62.7019 121.34 62.9094 120.867 63.3243 119.921L71.2343 101.886C71.6577 100.92 71.8694 100.438 72.2092 100.143C72.5629 99.8357 73.0132 99.6626 73.4815 99.6535C73.9314 99.6448 74.4119 99.8612 75.373 100.294L125.307 122.787Z" fill="#471B78" fill-opacity="0.49"/>
<path d="M127.5 118L115 146.5L58 121.5L70.5 93L127.5 118Z" fill="url(#paint2_linear_32_7)" stroke="#471B78" stroke-width="4" stroke-miterlimit="10" stroke-linecap="round" stroke-linejoin="round"/>
<path d="M127.5 118V178" stroke="#471B78" stroke-width="4" stroke-miterlimit="10" stroke-linecap="round" stroke-linejoin="round"/>
</g>
<path d="M166.578 59.0788L161.806 47.5795C158.123 38.7034 147.341 38.0562 138.267 38L132.283 38.2959L86 46.2311L87.7102 46.6475C91.0861 53.1393 100.693 56.7748 112.688 56.3014C121.837 56.067 140.14 52.9758 153.539 55.1568C159.569 56.2271 164.742 56.2461 166.578 59.0788Z" fill="#8A57C6" stroke="#471B78" stroke-width="2.5" stroke-miterlimit="10" stroke-linecap="round" stroke-linejoin="round"/>
<path d="M183.93 45.55C192.79 48.73 197.31 51.58 197.31 59.34C197.31 62.4 193.77 65.16 190.31 67.84L183.93 62.4V45.55Z" fill="#8A57C6" stroke="#471B78" stroke-width="2.5" stroke-miterlimit="10" stroke-linecap="round" stroke-linejoin="round"/>
<path d="M71.99 44.21C63.13 47.39 59.16 50.52 58.61 57.96C58.36 61.49 60.28 64.33 63.74 67.41L71.99 61.91V44.21Z" fill="#8A57C6" stroke="#471B78" stroke-width="2.5" stroke-miterlimit="10" stroke-linecap="round" stroke-linejoin="round"/>
<path d="M151 52H184V63H151V52Z" fill="#EFF4F4" stroke="#471B78" stroke-width="2" stroke-miterlimit="10" stroke-linecap="round" stroke-linejoin="round"/>
<path d="M151 63H184V70.2244C184 71.9883 181.958 73 180.675 73H154.416C152.405 73 151 71.4306 151 68.6031V63Z" fill="#0E8077" stroke="#471B78" stroke-width="2" stroke-miterlimit="10" stroke-linecap="round" stroke-linejoin="round"/>
<path d="M151 52H184V44.7756C184 43.0117 181.958 42 180.675 42H154.416C152.405 42 151 43.5694 151 46.3969V52Z" fill="#EFF4F4" stroke="#471B78" stroke-width="2" stroke-miterlimit="10" stroke-linecap="round" stroke-linejoin="round"/>
<path d="M155.85 48.9405C157.48 48.9405 158.3 47.0805 157.28 45.6805C156.37 44.3905 154 45.0405 154 46.7405C154 47.9905 154.85 48.9405 155.85 48.9405Z" fill="#471B78"/>
<path d="M155.99 59.05C157.62 59.05 158.44 57.19 157.42 55.79C156.51 54.5 154.14 55.15 154.14 56.85C154.14 58.03 155.05 59.05 155.99 59.05Z" fill="#471B78"/>
<path d="M155.85 69.9405C157.48 69.9405 158.3 68.0805 157.28 66.6805C156.37 65.3905 154 66.0405 154 67.7405C154 68.9905 154.84 69.9405 155.85 69.9405Z" fill="#471B78"/>
<path d="M176 47H179.11" stroke="#471B78" stroke-width="2" stroke-miterlimit="10" stroke-linecap="round" stroke-linejoin="round"/>
<path d="M176 57H179.11" stroke="#471B78" stroke-width="2" stroke-miterlimit="10" stroke-linecap="round" stroke-linejoin="round"/>
<path d="M176 68H179.11" stroke="#471B78" stroke-width="2" stroke-miterlimit="10" stroke-linecap="round" stroke-linejoin="round"/>
<path d="M75.77 41H102.51C104.75 41 105.44 42.83 105.44 44.59V71.77C105.44 73.89 104.13 75.14 101.86 75.14H75.84C73.32 75.14 72 73.89 72 71.52V44.44C72 42.69 73.32 41 75.77 41Z" fill="#EFECE5" stroke="#471B78" stroke-width="2.5" stroke-miterlimit="10" stroke-linecap="round" stroke-linejoin="round"/>
<path d="M97.87 48.9V67.06C97.87 69.18 92.96 70.23 88.73 70.23C84.5 70.23 79.11 69.18 79.11 67.06V48.9H97.87Z" fill="#B98112" stroke="#471B78" stroke-width="2" stroke-miterlimit="10" stroke-linecap="round" stroke-linejoin="round"/>
<path d="M88.2108 53C94.23 53 98 51.3204 98 49.2718C98 47.2136 94.23 46 88.2108 46C82.1917 46 79 47.2136 79 49.2718C79 51.3204 82.1917 53 88.2108 53Z" fill="#F4F3EF" stroke="#471B78" stroke-width="2" stroke-miterlimit="10" stroke-linecap="round" stroke-linejoin="round"/>
<path d="M79.11 55.23C79.11 57.34 82.95 58.6 88.57 58.6C94.19 58.6 97.87 57.34 97.87 55.23" stroke="#471B78" stroke-width="2" stroke-miterlimit="10" stroke-linecap="round" stroke-linejoin="round"/>
<path d="M79.11 61.12C79.11 63.23 82.95 64.49 88.57 64.49C94.19 64.49 97.87 63.23 97.87 61.12" stroke="#471B78" stroke-width="2" stroke-miterlimit="10" stroke-linecap="round" stroke-linejoin="round"/>
<path d="M114.84 18H141.3C143.75 18 144.44 19.83 144.44 21.32V48.91C144.44 51.03 142.95 52.28 140.86 52.28H115.24C112.72 52.28 111 50.96 111 48.3V20.95C111 19.26 112.01 18 114.84 18Z" fill="#E7EAED" stroke="#471B78" stroke-width="2.5" stroke-miterlimit="10" stroke-linecap="round" stroke-linejoin="round"/>
<path d="M117.11 29.76H125.02" stroke="#471B78" stroke-width="2" stroke-miterlimit="10" stroke-linecap="round" stroke-linejoin="round"/>
<path d="M121.62 34.08H131.02" stroke="#471B78" stroke-width="2" stroke-miterlimit="10" stroke-linecap="round" stroke-linejoin="round"/>
<path d="M122.43 38.11H138.11" stroke="#471B78" stroke-width="2" stroke-miterlimit="10" stroke-linecap="round" stroke-linejoin="round"/>
<path d="M123.25 42.15H132.03" stroke="#471B78" stroke-width="2" stroke-miterlimit="10" stroke-linecap="round" stroke-linejoin="round"/>
<path d="M119.16 46.91H125.83" stroke="#471B78" stroke-width="2" stroke-miterlimit="10" stroke-linecap="round" stroke-linejoin="round"/>
<path d="M111 25.04H144.44V21.3C144.44 19.54 143.13 18 141.24 18H115.24C112.86 18 111 19.33 111 21.59V25.04Z" fill="#3061A6" stroke="#471B78" stroke-width="2" stroke-miterlimit="10" stroke-linecap="round" stroke-linejoin="round"/>
<path d="M115.4 23.0057C116.26 23.0057 116.7 22.0257 116.15 21.2657C115.53 20.4757 114.18 20.9957 114.31 21.9557C114.39 22.5657 114.88 23.0057 115.4 23.0057Z" fill="#471B78"/>
<path d="M118.68 23.0057C119.54 23.0057 119.98 22.0257 119.43 21.2657C118.81 20.4757 117.46 20.9957 117.6 21.9557C117.67 22.5657 118.16 23.0057 118.68 23.0057Z" fill="#471B78"/>
<path d="M121.68 23.0057C122.54 23.0057 122.98 22.0257 122.43 21.2657C121.81 20.4757 120.46 20.9957 120.6 21.9557C120.67 22.5657 121.16 23.0057 121.68 23.0057Z" fill="#471B78"/>
<path d="M115.18 62.12H141.92C144.16 62.12 144.85 63.95 144.85 65.71V92.89C144.85 95.01 143.54 96.26 141.27 96.26H115.25C112.73 96.26 111.41 95.01 111.41 92.64V65.56C111.41 63.81 112.73 62.12 115.18 62.12Z" fill="#EEE6E7" stroke="#471B78" stroke-width="2.5" stroke-miterlimit="10" stroke-linecap="round" stroke-linejoin="round"/>
<path d="M111.41 69.16H144.85V65.42C144.85 63.66 143.54 62.12 141.65 62.12H115.65C113.27 62.12 111.41 63.45 111.41 65.71V69.16Z" fill="#B32C38" stroke="#471B78" stroke-width="2" stroke-miterlimit="10" stroke-linecap="round" stroke-linejoin="round"/>
<path d="M115.81 67.1257C116.67 67.1257 117.11 66.1457 116.56 65.3857C115.94 64.5957 114.59 65.1157 114.72 66.0757C114.8 66.6857 115.29 67.1257 115.81 67.1257Z" fill="#471B78"/>
<path d="M119.09 67.1257C119.95 67.1257 120.39 66.1457 119.84 65.3857C119.22 64.5957 117.87 65.1157 118.01 66.0757C118.08 66.6857 118.57 67.1257 119.09 67.1257Z" fill="#471B78"/>
<path d="M122.09 67.1257C122.95 67.1257 123.39 66.1457 122.84 65.3857C122.22 64.5957 120.87 65.1157 121.01 66.0757C121.08 66.6857 121.57 67.1257 122.09 67.1257Z" fill="#471B78"/>
<path d="M122.43 78.05L118.34 83.41L122.43 87.92" stroke="#471B78" stroke-width="2.5" stroke-miterlimit="10" stroke-linecap="round" stroke-linejoin="round"/>
<path d="M133.47 78.05L137.56 82.93L133.47 87.92" stroke="#471B78" stroke-width="2.5" stroke-miterlimit="10" stroke-linecap="round" stroke-linejoin="round"/>
<path d="M129.79 76.36L125.42 91.2" stroke="#471B78" stroke-width="2.5" stroke-miterlimit="10" stroke-linecap="round" stroke-linejoin="round"/>
<path d="M58.61 57.39V69.84C58.61 79.45 66.78 84.18 76.65 87.71L82.95 89.73L108.29 99.71L107.71 91.81C107.08 87.08 104.31 82.93 99.52 81.12C91.78 78.19 72.78 73.16 67.08 68.06C63.01 65.07 59.23 61.81 58.61 57.39Z" fill="#F1E8F1" stroke="#471B78" stroke-width="2.5" stroke-miterlimit="10" stroke-linecap="round" stroke-linejoin="round"/>
<path d="M128 117C127.09 108.07 131.08 93.28 152.41 83.61C156.71 81.61 173.61 76.81 180.26 73.02C185.96 69.88 192.91 67.22 197.31 60.05V70.84C197.31 80.45 187.91 85.77 173.61 89.61C160.51 93.36 143.61 97.72 140.5 111.5L128 117Z" fill="#F1E8F1" stroke="#471B78" stroke-width="2.5" stroke-miterlimit="10" stroke-linecap="round" stroke-linejoin="round"/>
<defs>
<linearGradient id="paint0_linear_32_7" x1="127.5" y1="110" x2="127.5" y2="178" gradientUnits="userSpaceOnUse">
<stop stop-color="#C279F0"/>
<stop offset="1" stop-color="#7840AE"/>
</linearGradient>
<linearGradient id="paint1_linear_32_7" x1="162" y1="93" x2="162" y2="146" gradientUnits="userSpaceOnUse">
<stop stop-color="#C279F0"/>
<stop offset="1" stop-color="#9A66E2"/>
</linearGradient>
<linearGradient id="paint2_linear_32_7" x1="93" y1="93" x2="93" y2="146" gradientUnits="userSpaceOnUse">
<stop stop-color="#C279F0"/>
<stop offset="1" stop-color="#9A66E2"/>
</linearGradient>
<clipPath id="clip0_32_7">
<rect width="143" height="114" fill="white" transform="translate(56 66)"/>
</clipPath>
</defs>
</svg>
