<svg width="256" height="256" viewBox="0 0 256 256" fill="none" xmlns="http://www.w3.org/2000/svg">
<g clip-path="url(#clip0_65_314)">
<path d="M53.7963 120.222V192.815C53.7963 196.272 55.3087 198.648 58.3334 199.944L127.685 230.407L197.037 199.944C200.062 198.648 201.574 196.272 201.574 192.815V120.222L127.685 87.8148L53.7963 120.222Z" fill="url(#paint0_linear_65_314)" stroke="#471B78" stroke-width="5.18518" stroke-miterlimit="10" stroke-linecap="round" stroke-linejoin="round"/>
<path d="M127.685 149.768L195.093 120.222L127.686 90.6667L127.685 149.768Z" fill="black" fill-opacity="0.05"/>
<path d="M127.685 150.037L158.796 138.712L127.685 126.704L97.2223 138.461L127.685 150.037Z" fill="#7840AE"/>
<path d="M156.852 178.556V217.444L177.593 208.37V169.482L156.852 178.556Z" fill="#F1E8F1" stroke="#471B78" stroke-width="5.18518" stroke-miterlimit="10" stroke-linecap="round"/>
<path d="M130.535 158.833C129.358 159.363 128.769 159.628 128.399 160.047C128.014 160.484 127.787 161.038 127.754 161.62C127.724 162.178 127.957 162.78 128.424 163.984L139.834 193.413C140.343 194.726 140.598 195.383 141.034 195.789C141.489 196.211 142.079 196.457 142.699 196.481C143.295 196.504 143.94 196.221 145.23 195.655L199.328 171.928C200.166 171.56 200.584 171.377 200.898 171.092C201.226 170.794 201.472 170.418 201.613 169.998C201.748 169.596 201.748 169.139 201.748 168.224V166.855C201.748 165.968 201.748 165.524 201.876 165.131C202.01 164.721 202.244 164.351 202.557 164.055C202.857 163.771 203.258 163.581 204.06 163.201L209.142 160.793C210.334 160.228 210.93 159.946 211.294 159.51C211.674 159.056 211.887 158.486 211.898 157.894C211.908 157.326 211.643 156.722 211.114 155.514L200.686 131.739C200.138 130.488 199.863 129.863 199.423 129.481C198.965 129.083 198.381 128.858 197.774 128.846C197.191 128.835 196.568 129.115 195.323 129.676L130.535 158.833Z" fill="#471B78" fill-opacity="0.49"/>
<path d="M127.685 152.63L143.889 189.574L217.778 157.167L201.574 120.222L127.685 152.63Z" fill="url(#paint1_linear_65_314)" stroke="#471B78" stroke-width="5.18518" stroke-miterlimit="10" stroke-linecap="round" stroke-linejoin="round"/>
<path d="M124.843 158.835C126.018 159.364 126.605 159.629 126.975 160.048C127.36 160.484 127.587 161.037 127.62 161.618C127.651 162.176 127.419 162.777 126.955 163.979L115.597 193.405C115.09 194.721 114.836 195.379 114.399 195.785C113.945 196.209 113.354 196.455 112.733 196.479C112.137 196.502 111.491 196.219 110.2 195.653L56.5017 172.101C55.6638 171.733 55.2449 171.55 54.9312 171.265C54.6036 170.967 54.3577 170.591 54.2167 170.171C54.0818 169.769 54.0818 169.312 54.0818 168.397V166.46C54.0818 165.557 54.0818 165.105 53.9497 164.707C53.8117 164.292 53.5709 163.918 53.2496 163.621C52.9419 163.336 52.5306 163.15 51.708 162.777L46.5277 160.427C45.3082 159.874 44.6985 159.597 44.3244 159.161C43.935 158.707 43.7147 158.132 43.7009 157.533C43.6877 156.959 43.9566 156.346 44.4945 155.119L54.7483 131.741C55.2971 130.489 55.5715 129.864 56.012 129.481C56.4705 129.083 57.0542 128.859 57.6613 128.847C58.2445 128.836 58.8674 129.116 60.1132 129.678L124.843 158.835Z" fill="#471B78" fill-opacity="0.49"/>
<path d="M127.685 152.63L111.482 189.574L37.5926 157.167L53.7963 120.222L127.685 152.63Z" fill="url(#paint2_linear_65_314)" stroke="#471B78" stroke-width="5.18518" stroke-miterlimit="10" stroke-linecap="round" stroke-linejoin="round"/>
<path d="M127.685 152.63V230.407" stroke="#471B78" stroke-width="5.18518" stroke-miterlimit="10" stroke-linecap="round" stroke-linejoin="round"/>
</g>
<path d="M178.342 76.2503L172.156 61.3438C167.382 49.8378 153.405 48.9988 141.642 48.926L133.885 49.3095L73.8889 59.5959L76.1058 60.1357C80.482 68.551 92.9357 73.2637 108.484 72.65C120.344 72.3461 144.07 68.339 161.439 71.1663C169.256 72.5537 175.962 72.5783 178.342 76.2503Z" fill="#8A57C6" stroke="#471B78" stroke-width="3.24074" stroke-miterlimit="10" stroke-linecap="round" stroke-linejoin="round"/>
<path d="M200.835 58.713C212.32 62.8352 218.18 66.5296 218.18 76.5889C218.18 80.5555 213.591 84.1333 209.106 87.6074L200.835 80.5555V58.713Z" fill="#8A57C6" stroke="#471B78" stroke-width="3.24074" stroke-miterlimit="10" stroke-linecap="round" stroke-linejoin="round"/>
<path d="M55.7278 56.976C44.2426 61.0982 39.0963 65.1556 38.3834 74.8C38.0593 79.376 40.5482 83.0574 45.0334 87.05L55.7278 79.9204V56.976Z" fill="#8A57C6" stroke="#471B78" stroke-width="3.24074" stroke-miterlimit="10" stroke-linecap="round" stroke-linejoin="round"/>
<path d="M158.148 67.0741H200.926V81.3334H158.148V67.0741Z" fill="#EFF4F4" stroke="#471B78" stroke-width="2.59259" stroke-miterlimit="10" stroke-linecap="round" stroke-linejoin="round"/>
<path d="M158.148 81.3333H200.926V90.6983C200.926 92.9848 198.279 94.2963 196.616 94.2963H162.576C159.969 94.2963 158.148 92.2619 158.148 88.5966V81.3333Z" fill="#0E8077" stroke="#471B78" stroke-width="2.59259" stroke-miterlimit="10" stroke-linecap="round" stroke-linejoin="round"/>
<path d="M158.148 67.074H200.926V57.7091C200.926 55.4225 198.279 54.1111 196.616 54.1111H162.576C159.969 54.1111 158.148 56.1455 158.148 59.8108V67.074Z" fill="#EFF4F4" stroke="#471B78" stroke-width="2.59259" stroke-miterlimit="10" stroke-linecap="round" stroke-linejoin="round"/>
<path d="M164.435 63.108C166.548 63.108 167.611 60.6969 166.289 58.8821C165.109 57.2099 162.037 58.0525 162.037 60.2562C162.037 61.8766 163.139 63.108 164.435 63.108Z" fill="#471B78"/>
<path d="M164.617 76.213C166.73 76.213 167.793 73.8018 166.47 71.987C165.291 70.3148 162.219 71.1574 162.219 73.3611C162.219 74.8907 163.398 76.213 164.617 76.213Z" fill="#471B78"/>
<path d="M164.435 90.3303C166.548 90.3303 167.611 87.9192 166.289 86.1043C165.109 84.4321 162.037 85.2747 162.037 87.4784C162.037 89.0988 163.126 90.3303 164.435 90.3303Z" fill="#471B78"/>
<path d="M190.556 60.5927H194.587" stroke="#471B78" stroke-width="2.59259" stroke-miterlimit="10" stroke-linecap="round" stroke-linejoin="round"/>
<path d="M190.556 73.5555H194.587" stroke="#471B78" stroke-width="2.59259" stroke-miterlimit="10" stroke-linecap="round" stroke-linejoin="round"/>
<path d="M190.556 87.8148H194.587" stroke="#471B78" stroke-width="2.59259" stroke-miterlimit="10" stroke-linecap="round" stroke-linejoin="round"/>
<path d="M60.6278 52.8148H95.2908C98.1945 52.8148 99.0889 55.187 99.0889 57.4685V92.7019C99.0889 95.45 97.3908 97.0704 94.4482 97.0704H60.7185C57.4519 97.0704 55.7408 95.45 55.7408 92.3778V57.2741C55.7408 55.0056 57.4519 52.8148 60.6278 52.8148Z" fill="#EFECE5" stroke="#471B78" stroke-width="3.24074" stroke-miterlimit="10" stroke-linecap="round" stroke-linejoin="round"/>
<path d="M89.2759 63.0556V86.5963C89.2759 89.3445 82.9111 90.7056 77.4278 90.7056C71.9444 90.7056 64.9574 89.3445 64.9574 86.5963V63.0556H89.2759Z" fill="#B98112" stroke="#471B78" stroke-width="2.59259" stroke-miterlimit="10" stroke-linecap="round" stroke-linejoin="round"/>
<path d="M76.7547 68.3703C84.5574 68.3703 89.4445 66.1931 89.4445 63.5375C89.4445 60.8695 84.5574 59.2963 76.7547 59.2963C68.9522 59.2963 64.8148 60.8695 64.8148 63.5375C64.8148 66.1931 68.9522 68.3703 76.7547 68.3703Z" fill="#F4F3EF" stroke="#471B78" stroke-width="2.59259" stroke-miterlimit="10" stroke-linecap="round" stroke-linejoin="round"/>
<path d="M64.9574 71.261C64.9574 73.9962 69.9352 75.6296 77.2204 75.6296C84.5055 75.6296 89.2759 73.9962 89.2759 71.261" stroke="#471B78" stroke-width="2.59259" stroke-miterlimit="10" stroke-linecap="round" stroke-linejoin="round"/>
<path d="M64.9574 78.8963C64.9574 81.6315 69.9352 83.2648 77.2204 83.2648C84.5055 83.2648 89.2759 81.6315 89.2759 78.8963" stroke="#471B78" stroke-width="2.59259" stroke-miterlimit="10" stroke-linecap="round" stroke-linejoin="round"/>
<path d="M111.274 23H145.574C148.75 23 149.644 25.3722 149.644 27.3037V63.0685C149.644 65.8167 147.713 67.437 145.004 67.437H111.793C108.526 67.437 106.296 65.7259 106.296 62.2778V26.8241C106.296 24.6333 107.606 23 111.274 23Z" fill="#E7EAED" stroke="#471B78" stroke-width="3.24074" stroke-miterlimit="10" stroke-linecap="round" stroke-linejoin="round"/>
<path d="M114.217 38.2444H124.47" stroke="#471B78" stroke-width="2.59259" stroke-miterlimit="10" stroke-linecap="round" stroke-linejoin="round"/>
<path d="M120.063 43.8445H132.248" stroke="#471B78" stroke-width="2.59259" stroke-miterlimit="10" stroke-linecap="round" stroke-linejoin="round"/>
<path d="M121.113 49.0685H141.439" stroke="#471B78" stroke-width="2.59259" stroke-miterlimit="10" stroke-linecap="round" stroke-linejoin="round"/>
<path d="M122.176 54.3055H133.557" stroke="#471B78" stroke-width="2.59259" stroke-miterlimit="10" stroke-linecap="round" stroke-linejoin="round"/>
<path d="M116.874 60.4759H125.52" stroke="#471B78" stroke-width="2.59259" stroke-miterlimit="10" stroke-linecap="round" stroke-linejoin="round"/>
<path d="M106.296 32.1259H149.644V27.2778C149.644 24.9963 147.946 23 145.496 23H111.793C108.707 23 106.296 24.7241 106.296 27.6537V32.1259Z" fill="#3061A6" stroke="#471B78" stroke-width="2.59259" stroke-miterlimit="10" stroke-linecap="round" stroke-linejoin="round"/>
<path d="M112 29.4889C113.115 29.4889 113.685 28.2185 112.972 27.2333C112.169 26.2092 110.419 26.8833 110.587 28.1277C110.691 28.9185 111.326 29.4889 112 29.4889Z" fill="#471B78"/>
<path d="M116.252 29.4889C117.367 29.4889 117.937 28.2185 117.224 27.2333C116.42 26.2092 114.67 26.8833 114.852 28.1277C114.943 28.9185 115.578 29.4889 116.252 29.4889Z" fill="#471B78"/>
<path d="M120.141 29.4889C121.256 29.4889 121.826 28.2185 121.113 27.2333C120.309 26.2092 118.559 26.8833 118.741 28.1277C118.832 28.9185 119.467 29.4889 120.141 29.4889Z" fill="#471B78"/>
<path d="M111.715 80.1926H146.378C149.281 80.1926 150.176 82.5648 150.176 84.8463V120.08C150.176 122.828 148.478 124.448 145.535 124.448H111.806C108.539 124.448 106.828 122.828 106.828 119.756V84.6518C106.828 82.3833 108.539 80.1926 111.715 80.1926Z" fill="#EEE6E7" stroke="#471B78" stroke-width="3.24074" stroke-miterlimit="10" stroke-linecap="round" stroke-linejoin="round"/>
<path d="M106.828 89.3185H150.176V84.4703C150.176 82.1889 148.478 80.1926 146.028 80.1926H112.324C109.239 80.1926 106.828 81.9166 106.828 84.8463V89.3185Z" fill="#B32C38" stroke="#471B78" stroke-width="2.59259" stroke-miterlimit="10" stroke-linecap="round" stroke-linejoin="round"/>
<path d="M112.531 86.6814C113.646 86.6814 114.217 85.4111 113.504 84.4259C112.7 83.4018 110.95 84.0759 111.119 85.3203C111.222 86.1111 111.857 86.6814 112.531 86.6814Z" fill="#471B78"/>
<path d="M116.783 86.6814C117.898 86.6814 118.469 85.4111 117.756 84.4259C116.952 83.4018 115.202 84.0759 115.383 85.3203C115.474 86.1111 116.109 86.6814 116.783 86.6814Z" fill="#471B78"/>
<path d="M120.672 86.6814C121.787 86.6814 122.357 85.4111 121.644 84.4259C120.841 83.4018 119.091 84.0759 119.272 85.3203C119.363 86.1111 119.998 86.6814 120.672 86.6814Z" fill="#471B78"/>
<path d="M121.113 100.843L115.811 107.791L121.113 113.637" stroke="#471B78" stroke-width="3.24074" stroke-miterlimit="10" stroke-linecap="round" stroke-linejoin="round"/>
<path d="M135.424 100.843L140.726 107.169L135.424 113.637" stroke="#471B78" stroke-width="3.24074" stroke-miterlimit="10" stroke-linecap="round" stroke-linejoin="round"/>
<path d="M130.654 98.6518L124.989 117.889" stroke="#471B78" stroke-width="3.24074" stroke-miterlimit="10" stroke-linecap="round" stroke-linejoin="round"/>
<path d="M38.3833 74.0612V90.2C38.3833 102.657 48.9741 108.789 61.7685 113.365L69.9352 115.983L102.783 128.92L102.031 118.68C101.215 112.548 97.6241 107.169 91.4148 104.822C81.3815 101.024 56.7519 94.5038 49.363 87.8926C44.087 84.0167 39.187 79.7908 38.3833 74.0612Z" fill="#F1E8F1" stroke="#471B78" stroke-width="3.24074" stroke-miterlimit="10" stroke-linecap="round" stroke-linejoin="round"/>
<path d="M128.333 151.333C127.154 139.757 132.326 120.585 159.976 108.05C165.55 105.457 187.457 99.2351 196.078 94.3222C203.467 90.2518 212.476 86.8037 218.18 77.5092V91.4963C218.18 103.954 205.994 110.85 187.457 115.828C170.476 120.689 148.569 126.341 144.537 144.204L128.333 151.333Z" fill="#F1E8F1" stroke="#471B78" stroke-width="3.24074" stroke-miterlimit="10" stroke-linecap="round" stroke-linejoin="round"/>
<defs>
<linearGradient id="paint0_linear_65_314" x1="127.685" y1="142.259" x2="127.685" y2="230.407" gradientUnits="userSpaceOnUse">
<stop stop-color="#C279F0"/>
<stop offset="1" stop-color="#7840AE"/>
</linearGradient>
<linearGradient id="paint1_linear_65_314" x1="172.407" y1="120.222" x2="172.407" y2="188.926" gradientUnits="userSpaceOnUse">
<stop stop-color="#C279F0"/>
<stop offset="1" stop-color="#9A66E2"/>
</linearGradient>
<linearGradient id="paint2_linear_65_314" x1="82.963" y1="120.222" x2="82.963" y2="188.926" gradientUnits="userSpaceOnUse">
<stop stop-color="#C279F0"/>
<stop offset="1" stop-color="#9A66E2"/>
</linearGradient>
<clipPath id="clip0_65_314">
<rect width="185.37" height="147.778" fill="white" transform="translate(35 85.2222)"/>
</clipPath>
</defs>
</svg>
